<svg id="my-svg" width="100%" xmlns="http://www.w3.org/2000/svg" xmlns:xlink="http://www.w3.org/1999/xlink" class="flowchart" style="max-width: 1575.32px; background-color: white;" viewBox="0 0 1575.3203125 675" role="graphics-document document" aria-roledescription="flowchart-v2"><style>#my-svg{font-family:Inter,-apple-system,BlinkMacSystemFont,Segoe UI,sans-serif;font-size:14px;fill:#334155;}@keyframes edge-animation-frame{from{stroke-dashoffset:0;}}@keyframes dash{to{stroke-dashoffset:0;}}#my-svg .edge-animation-slow{stroke-dasharray:9,5!important;stroke-dashoffset:900;animation:dash 50s linear infinite;stroke-linecap:round;}#my-svg .edge-animation-fast{stroke-dasharray:9,5!important;stroke-dashoffset:900;animation:dash 20s linear infinite;stroke-linecap:round;}#my-svg .error-icon{fill:#1e3a5f;}#my-svg .error-text{fill:#e1c5a0;stroke:#e1c5a0;}#my-svg .edge-thickness-normal{stroke-width:1px;}#my-svg .edge-thickness-thick{stroke-width:3.5px;}#my-svg .edge-pattern-solid{stroke-dasharray:0;}#my-svg .edge-thickness-invisible{stroke-width:0;fill:none;}#my-svg .edge-pattern-dashed{stroke-dasharray:3;}#my-svg .edge-pattern-dotted{stroke-dasharray:2;}#my-svg .marker{fill:#64748b;stroke:#64748b;}#my-svg .marker.cross{stroke:#64748b;}#my-svg svg{font-family:Inter,-apple-system,BlinkMacSystemFont,Segoe UI,sans-serif;font-size:14px;}#my-svg p{margin:0;}#my-svg .label{font-family:Inter,-apple-system,BlinkMacSystemFont,Segoe UI,sans-serif;color:#f8fafc;}#my-svg .cluster-label text{fill:#e1c5a0;}#my-svg .cluster-label span{color:#e1c5a0;}#my-svg .cluster-label span p{background-color:transparent;}#my-svg .label text,#my-svg span{fill:#f8fafc;color:#f8fafc;}#my-svg .node rect,#my-svg .node circle,#my-svg .node ellipse,#my-svg .node polygon,#my-svg .node path{fill:#f1f5f9;stroke:#475569;stroke-width:1px;}#my-svg .rough-node .label text,#my-svg .node .label text,#my-svg .image-shape .label,#my-svg .icon-shape .label{text-anchor:middle;}#my-svg .node .katex path{fill:#000;stroke:#000;stroke-width:1px;}#my-svg .rough-node .label,#my-svg .node .label,#my-svg .image-shape .label,#my-svg .icon-shape .label{text-align:center;}#my-svg .node.clickable{cursor:pointer;}#my-svg .root .anchor path{fill:#64748b!important;stroke-width:0;stroke:#64748b;}#my-svg .arrowheadPath{fill:#0b0b0b;}#my-svg .edgePath .path{stroke:#64748b;stroke-width:2.0px;}#my-svg .flowchart-link{stroke:#64748b;fill:none;}#my-svg .edgeLabel{background-color:#334155;text-align:center;}#my-svg .edgeLabel p{background-color:#334155;}#my-svg .edgeLabel rect{opacity:0.5;background-color:#334155;fill:#334155;}#my-svg .labelBkg{background-color:rgba(51, 65, 85, 0.5);}#my-svg .cluster rect{fill:#e2e8f0;stroke:#94a3b8;stroke-width:1px;}#my-svg .cluster text{fill:#e1c5a0;}#my-svg .cluster span{color:#e1c5a0;}#my-svg div.mermaidTooltip{position:absolute;text-align:center;max-width:200px;padding:2px;font-family:Inter,-apple-system,BlinkMacSystemFont,Segoe UI,sans-serif;font-size:12px;background:#1e3a5f;border:1px solid hsl(214.1538461538, 12%, 14.5098039216%);border-radius:2px;pointer-events:none;z-index:100;}#my-svg .flowchartTitleText{text-anchor:middle;font-size:18px;fill:#334155;}#my-svg rect.text{fill:none;stroke-width:0;}#my-svg .icon-shape,#my-svg .image-shape{background-color:#334155;text-align:center;}#my-svg .icon-shape p,#my-svg .image-shape p{background-color:#334155;padding:2px;}#my-svg .icon-shape .label rect,#my-svg .image-shape .label rect{opacity:0.5;background-color:#334155;fill:#334155;}#my-svg .label-icon{display:inline-block;height:1em;overflow:visible;vertical-align:-0.125em;}#my-svg .node .label-icon path{fill:currentColor;stroke:revert;stroke-width:revert;}#my-svg :root{--mermaid-font-family:"trebuchet ms",verdana,arial,sans-serif;}</style><g><marker id="my-svg_flowchart-v2-pointEnd" class="marker flowchart-v2" viewBox="0 0 10 10" refX="5" refY="5" markerUnits="userSpaceOnUse" markerWidth="8" markerHeight="8" orient="auto"><path d="M 0 0 L 10 5 L 0 10 z" class="arrowMarkerPath" style="stroke-width: 1; stroke-dasharray: 1, 0;"/></marker><marker id="my-svg_flowchart-v2-pointStart" class="marker flowchart-v2" viewBox="0 0 10 10" refX="4.5" refY="5" markerUnits="userSpaceOnUse" markerWidth="8" markerHeight="8" orient="auto"><path d="M 0 5 L 10 10 L 10 0 z" class="arrowMarkerPath" style="stroke-width: 1; stroke-dasharray: 1, 0;"/></marker><marker id="my-svg_flowchart-v2-circleEnd" class="marker flowchart-v2" viewBox="0 0 10 10" refX="11" refY="5" markerUnits="userSpaceOnUse" markerWidth="11" markerHeight="11" orient="auto"><circle cx="5" cy="5" r="5" class="arrowMarkerPath" style="stroke-width: 1; stroke-dasharray: 1, 0;"/></marker><marker id="my-svg_flowchart-v2-circleStart" class="marker flowchart-v2" viewBox="0 0 10 10" refX="-1" refY="5" markerUnits="userSpaceOnUse" markerWidth="11" markerHeight="11" orient="auto"><circle cx="5" cy="5" r="5" class="arrowMarkerPath" style="stroke-width: 1; stroke-dasharray: 1, 0;"/></marker><marker id="my-svg_flowchart-v2-crossEnd" class="marker cross flowchart-v2" viewBox="0 0 11 11" refX="12" refY="5.2" markerUnits="userSpaceOnUse" markerWidth="11" markerHeight="11" orient="auto"><path d="M 1,1 l 9,9 M 10,1 l -9,9" class="arrowMarkerPath" style="stroke-width: 2; stroke-dasharray: 1, 0;"/></marker><marker id="my-svg_flowchart-v2-crossStart" class="marker cross flowchart-v2" viewBox="0 0 11 11" refX="-1" refY="5.2" markerUnits="userSpaceOnUse" markerWidth="11" markerHeight="11" orient="auto"><path d="M 1,1 l 9,9 M 10,1 l -9,9" class="arrowMarkerPath" style="stroke-width: 2; stroke-dasharray: 1, 0;"/></marker><g class="root"><g class="clusters"><g class="cluster" id="Workers" data-look="classic"><rect style="" x="576.828125" y="373" width="791.1484375" height="122"/><g class="cluster-label" transform="translate(926.04296875, 373)"><foreignObject width="92.71875" height="21"><div xmlns="http://www.w3.org/1999/xhtml" style="display: table-cell; white-space: nowrap; line-height: 1.5;"><span class="nodeLabel"><p>🔧 Teammates</p></span></div></foreignObject></g></g><g class="cluster" id="FS" data-look="classic"><rect style="" x="43.140625" y="545" width="1425.515625" height="122"/><g class="cluster-label" transform="translate(650.5859375, 545)"><foreignObject width="210.625" height="21"><div xmlns="http://www.w3.org/1999/xhtml" style="display: table-cell; white-space: nowrap; line-height: 1.5;"><span class="nodeLabel"><p>📁 File System (~/.claude/teams/)</p></span></div></foreignObject></g></g><g class="cluster" id="Backend" data-look="classic"><rect style="" x="524" y="180" width="904.65625" height="143"/><g class="cluster-label" transform="translate(935.796875, 180)"><foreignObject width="81.0625" height="21"><div xmlns="http://www.w3.org/1999/xhtml" style="display: table-cell; white-space: nowrap; line-height: 1.5;"><span class="nodeLabel"><p>🖥️ Backends</p></span></div></foreignObject></g></g><g class="cluster" id="Leader" data-look="classic"><rect style="" x="8" y="8" width="1559.3203125" height="122"/><g class="cluster-label" transform="translate(737.23828125, 8)"><foreignObject width="100.84375" height="21"><div xmlns="http://www.w3.org/1999/xhtml" style="display: table-cell; white-space: nowrap; line-height: 1.5;"><span class="nodeLabel"><p>👑 Team Leader</p></span></div></foreignObject></g></g></g><g class="edgePaths"><path d="M152.742,105L152.742,109.167C152.742,113.333,152.742,121.667,152.742,130C152.742,138.333,152.742,146.667,152.742,155C152.742,163.333,152.742,171.667,152.742,187.75C152.742,203.833,152.742,227.667,152.742,251.5C152.742,275.333,152.742,299.167,152.742,315.25C152.742,331.333,152.742,339.667,152.742,348C152.742,356.333,152.742,364.667,152.742,379C152.742,393.333,152.742,413.667,152.742,434C152.742,454.333,152.742,474.667,152.742,489C152.742,503.333,152.742,511.667,152.742,520C152.742,528.333,152.742,536.667,152.742,544.333C152.742,552,152.742,559,152.742,562.5L152.742,566" id="L_TC_CONFIG_0" class="edge-thickness-normal edge-pattern-solid edge-thickness-normal edge-pattern-solid flowchart-link" style=";" data-edge="true" data-et="edge" data-id="L_TC_CONFIG_0" data-points="W3sieCI6MTUyLjc0MjE4NzUsInkiOjEwNX0seyJ4IjoxNTIuNzQyMTg3NSwieSI6MTMwfSx7IngiOjE1Mi43NDIxODc1LCJ5IjoxNTV9LHsieCI6MTUyLjc0MjE4NzUsInkiOjE4MH0seyJ4IjoxNTIuNzQyMTg3NSwieSI6MjUxLjV9LHsieCI6MTUyLjc0MjE4NzUsInkiOjMyM30seyJ4IjoxNTIuNzQyMTg3NSwieSI6MzQ4fSx7IngiOjE1Mi43NDIxODc1LCJ5IjozNzN9LHsieCI6MTUyLjc0MjE4NzUsInkiOjQzNH0seyJ4IjoxNTIuNzQyMTg3NSwieSI6NDk1fSx7IngiOjE1Mi43NDIxODc1LCJ5Ijo1MjB9LHsieCI6MTUyLjc0MjE4NzUsInkiOjU0NX0seyJ4IjoxNTIuNzQyMTg3NSwieSI6NTcwfV0=" marker-end="url(#my-svg_flowchart-v2-pointEnd)"/><path d="M679.648,287.5L679.648,293.417C679.648,299.333,679.648,311.167,679.648,321.25C679.648,331.333,679.648,339.667,679.648,348C679.648,356.333,679.648,364.667,679.648,372.333C679.648,380,679.648,387,679.648,390.5L679.648,394" id="L_TMUX_W1_0" class="edge-thickness-normal edge-pattern-solid edge-thickness-normal edge-pattern-solid flowchart-link" style=";" data-edge="true" data-et="edge" data-id="L_TMUX_W1_0" data-points="W3sieCI6Njc5LjY0ODQzNzUsInkiOjI4Ny41fSx7IngiOjY3OS42NDg0Mzc1LCJ5IjozMjN9LHsieCI6Njc5LjY0ODQzNzUsInkiOjM0OH0seyJ4Ijo2NzkuNjQ4NDM3NSwieSI6MzczfSx7IngiOjY3OS42NDg0Mzc1LCJ5IjozOTh9XQ==" marker-end="url(#my-svg_flowchart-v2-pointEnd)"/><path d="M966.977,287.5L966.977,293.417C966.977,299.333,966.977,311.167,966.977,321.25C966.977,331.333,966.977,339.667,966.977,348C966.977,356.333,966.977,364.667,966.977,372.333C966.977,380,966.977,387,966.977,390.5L966.977,394" id="L_ITERM_W2_0" class="edge-thickness-normal edge-pattern-solid edge-thickness-normal edge-pattern-solid flowchart-link" style=";" data-edge="true" data-et="edge" data-id="L_ITERM_W2_0" data-points="W3sieCI6OTY2Ljk3NjU2MjUsInkiOjI4Ny41fSx7IngiOjk2Ni45NzY1NjI1LCJ5IjozMjN9LHsieCI6OTY2Ljk3NjU2MjUsInkiOjM0OH0seyJ4Ijo5NjYuOTc2NTYyNSwieSI6MzczfSx7IngiOjk2Ni45NzY1NjI1LCJ5IjozOTh9XQ==" marker-end="url(#my-svg_flowchart-v2-pointEnd)"/><path d="M1263.656,298L1263.656,302.167C1263.656,306.333,1263.656,314.667,1263.656,323C1263.656,331.333,1263.656,339.667,1263.656,348C1263.656,356.333,1263.656,364.667,1263.656,372.333C1263.656,380,1263.656,387,1263.656,390.5L1263.656,394" id="L_INPROC_W3_0" class="edge-thickness-normal edge-pattern-solid edge-thickness-normal edge-pattern-solid flowchart-link" style=";" data-edge="true" data-et="edge" data-id="L_INPROC_W3_0" data-points="W3sieCI6MTI2My42NTYyNSwieSI6Mjk4fSx7IngiOjEyNjMuNjU2MjUsInkiOjMyM30seyJ4IjoxMjYzLjY1NjI1LCJ5IjozNDh9LHsieCI6MTI2My42NTYyNSwieSI6MzczfSx7IngiOjEyNjMuNjU2MjUsInkiOjM5OH1d" marker-end="url(#my-svg_flowchart-v2-pointEnd)"/><path d="M427.789,105L427.789,109.167C427.789,113.333,427.789,121.667,427.789,130C427.789,138.333,427.789,146.667,427.789,155C427.789,163.333,427.789,171.667,427.789,187.75C427.789,203.833,427.789,227.667,427.789,251.5C427.789,275.333,427.789,299.167,427.789,315.25C427.789,331.333,427.789,339.667,427.789,348C427.789,356.333,427.789,364.667,427.789,379C427.789,393.333,427.789,413.667,427.789,434C427.789,454.333,427.789,474.667,427.789,489C427.789,503.333,427.789,511.667,427.789,520C427.789,528.333,427.789,536.667,501.636,549.188C575.482,561.709,723.176,578.418,797.022,586.773L870.869,595.127" id="L_SEND_MBOX_0" class="edge-thickness-normal edge-pattern-solid edge-thickness-normal edge-pattern-solid flowchart-link" style=";" data-edge="true" data-et="edge" data-id="L_SEND_MBOX_0" data-points="W3sieCI6NDI3Ljc4OTA2MjUsInkiOjEwNX0seyJ4Ijo0MjcuNzg5MDYyNSwieSI6MTMwfSx7IngiOjQyNy43ODkwNjI1LCJ5IjoxNTV9LHsieCI6NDI3Ljc4OTA2MjUsInkiOjE4MH0seyJ4Ijo0MjcuNzg5MDYyNSwieSI6MjUxLjV9LHsieCI6NDI3Ljc4OTA2MjUsInkiOjMyM30seyJ4Ijo0MjcuNzg5MDYyNSwieSI6MzQ4fSx7IngiOjQyNy43ODkwNjI1LCJ5IjozNzN9LHsieCI6NDI3Ljc4OTA2MjUsInkiOjQzNH0seyJ4Ijo0MjcuNzg5MDYyNSwieSI6NDk1fSx7IngiOjQyNy43ODkwNjI1LCJ5Ijo1MjB9LHsieCI6NDI3Ljc4OTA2MjUsInkiOjU0NX0seyJ4Ijo4NzQuODQzNzUsInkiOjU5NS41NzY3MjEzMzk5NzkxfV0=" marker-end="url(#my-svg_flowchart-v2-pointEnd)"/><path d="M679.648,470L679.648,474.167C679.648,478.333,679.648,486.667,679.648,495C679.648,503.333,679.648,511.667,679.648,520C679.648,528.333,679.648,536.667,711.529,547.602C743.409,558.536,807.17,572.073,839.051,578.841L870.931,585.609" id="L_W1_MBOX_0" class="edge-thickness-normal edge-pattern-solid edge-thickness-normal edge-pattern-solid flowchart-link" style=";" data-edge="true" data-et="edge" data-id="L_W1_MBOX_0" data-points="W3sieCI6Njc5LjY0ODQzNzUsInkiOjQ3MH0seyJ4Ijo2NzkuNjQ4NDM3NSwieSI6NDk1fSx7IngiOjY3OS42NDg0Mzc1LCJ5Ijo1MjB9LHsieCI6Njc5LjY0ODQzNzUsInkiOjU0NX0seyJ4Ijo4NzQuODQzNzUsInkiOjU4Ni40NDAxMjcyNDk5ODY0fV0=" marker-end="url(#my-svg_flowchart-v2-pointEnd)"/><path d="M966.977,470L966.977,474.167C966.977,478.333,966.977,486.667,966.977,495C966.977,503.333,966.977,511.667,966.977,520C966.977,528.333,966.977,536.667,966.977,544.333C966.977,552,966.977,559,966.977,562.5L966.977,566" id="L_W2_MBOX_0" class="edge-thickness-normal edge-pattern-solid edge-thickness-normal edge-pattern-solid flowchart-link" style=";" data-edge="true" data-et="edge" data-id="L_W2_MBOX_0" data-points="W3sieCI6OTY2Ljk3NjU2MjUsInkiOjQ3MH0seyJ4Ijo5NjYuOTc2NTYyNSwieSI6NDk1fSx7IngiOjk2Ni45NzY1NjI1LCJ5Ijo1MjB9LHsieCI6OTY2Ljk3NjU2MjUsInkiOjU0NX0seyJ4Ijo5NjYuOTc2NTYyNSwieSI6NTcwfV0=" marker-end="url(#my-svg_flowchart-v2-pointEnd)"/><path d="M1263.656,470L1263.656,474.167C1263.656,478.333,1263.656,486.667,1263.656,495C1263.656,503.333,1263.656,511.667,1263.656,520C1263.656,528.333,1263.656,536.667,1230.218,547.709C1196.78,558.75,1129.904,572.501,1096.466,579.376L1063.027,586.251" id="L_W3_MBOX_0" class="edge-thickness-normal edge-pattern-solid edge-thickness-normal edge-pattern-solid flowchart-link" style=";" data-edge="true" data-et="edge" data-id="L_W3_MBOX_0" data-points="W3sieCI6MTI2My42NTYyNSwieSI6NDcwfSx7IngiOjEyNjMuNjU2MjUsInkiOjQ5NX0seyJ4IjoxMjYzLjY1NjI1LCJ5Ijo1MjB9LHsieCI6MTI2My42NTYyNSwieSI6NTQ1fSx7IngiOjEwNTkuMTA5Mzc1LCJ5Ijo1ODcuMDU2NjY4ODYxMDkyOH1d" marker-end="url(#my-svg_flowchart-v2-pointEnd)"/><path d="M1448.656,105L1448.656,109.167C1448.656,113.333,1448.656,121.667,1448.656,130C1448.656,138.333,1448.656,146.667,1448.656,155C1448.656,163.333,1448.656,171.667,1448.656,187.75C1448.656,203.833,1448.656,227.667,1448.656,251.5C1448.656,275.333,1448.656,299.167,1448.656,315.25C1448.656,331.333,1448.656,339.667,1448.656,348C1448.656,356.333,1448.656,364.667,1448.656,379C1448.656,393.333,1448.656,413.667,1448.656,434C1448.656,454.333,1448.656,474.667,1448.656,489C1448.656,503.333,1448.656,511.667,1448.656,520C1448.656,528.333,1448.656,536.667,1384.393,548.972C1320.13,561.277,1191.604,577.553,1127.341,585.691L1063.078,593.83" id="L_INBOX_POLL_MBOX_0" class="edge-thickness-normal edge-pattern-solid edge-thickness-normal edge-pattern-solid flowchart-link" style=";" data-edge="true" data-et="edge" data-id="L_INBOX_POLL_MBOX_0" data-points="W3sieCI6MTQ0OC42NTYyNSwieSI6MTA1fSx7IngiOjE0NDguNjU2MjUsInkiOjEzMH0seyJ4IjoxNDQ4LjY1NjI1LCJ5IjoxNTV9LHsieCI6MTQ0OC42NTYyNSwieSI6MTgwfSx7IngiOjE0NDguNjU2MjUsInkiOjI1MS41fSx7IngiOjE0NDguNjU2MjUsInkiOjMyM30seyJ4IjoxNDQ4LjY1NjI1LCJ5IjozNDh9LHsieCI6MTQ0OC42NTYyNSwieSI6MzczfSx7IngiOjE0NDguNjU2MjUsInkiOjQzNH0seyJ4IjoxNDQ4LjY1NjI1LCJ5Ijo0OTV9LHsieCI6MTQ0OC42NTYyNSwieSI6NTIwfSx7IngiOjE0NDguNjU2MjUsInkiOjU0NX0seyJ4IjoxMDU5LjEwOTM3NSwieSI6NTk0LjMzMjI4NDQ4NjI1NDF9XQ==" marker-end="url(#my-svg_flowchart-v2-pointEnd)"/><path d="M679.648,105L679.648,109.167C679.648,113.333,679.648,121.667,679.648,130C679.648,138.333,679.648,146.667,679.648,154.333C679.648,162,679.648,169,679.648,172.5L679.648,176" id="L_SPAWN_Backend_0" class="edge-thickness-normal edge-pattern-solid edge-thickness-normal edge-pattern-solid flowchart-link" style=";" data-edge="true" data-et="edge" data-id="L_SPAWN_Backend_0" data-points="W3sieCI6Njc5LjY0ODQzNzUsInkiOjEwNX0seyJ4Ijo2NzkuNjQ4NDM3NSwieSI6MTMwfSx7IngiOjY3OS42NDg0Mzc1LCJ5IjoxNTV9LHsieCI6Njc5LjY0ODQzNzUsInkiOjE4MH0seyJ4Ijo2NzkuNjQ4NDM3NSwieSI6MjE1LjV9XQ==" marker-end="url(#my-svg_flowchart-v2-pointEnd)"/></g><g class="edgeLabels"><g class="edgeLabel"><g class="label" data-id="L_TC_CONFIG_0" transform="translate(0, 0)"><foreignObject width="0" height="0"><div xmlns="http://www.w3.org/1999/xhtml" class="labelBkg" style="display: table-cell; white-space: nowrap; line-height: 1.5; max-width: 200px; text-align: center;"><span class="edgeLabel"></span></div></foreignObject></g></g><g class="edgeLabel"><g class="label" data-id="L_TMUX_W1_0" transform="translate(0, 0)"><foreignObject width="0" height="0"><div xmlns="http://www.w3.org/1999/xhtml" class="labelBkg" style="display: table-cell; white-space: nowrap; line-height: 1.5; max-width: 200px; text-align: center;"><span class="edgeLabel"></span></div></foreignObject></g></g><g class="edgeLabel"><g class="label" data-id="L_ITERM_W2_0" transform="translate(0, 0)"><foreignObject width="0" height="0"><div xmlns="http://www.w3.org/1999/xhtml" class="labelBkg" style="display: table-cell; white-space: nowrap; line-height: 1.5; max-width: 200px; text-align: center;"><span class="edgeLabel"></span></div></foreignObject></g></g><g class="edgeLabel"><g class="label" data-id="L_INPROC_W3_0" transform="translate(0, 0)"><foreignObject width="0" height="0"><div xmlns="http://www.w3.org/1999/xhtml" class="labelBkg" style="display: table-cell; white-space: nowrap; line-height: 1.5; max-width: 200px; text-align: center;"><span class="edgeLabel"></span></div></foreignObject></g></g><g class="edgeLabel"><g class="label" data-id="L_SEND_MBOX_0" transform="translate(0, 0)"><foreignObject width="0" height="0"><div xmlns="http://www.w3.org/1999/xhtml" class="labelBkg" style="display: table-cell; white-space: nowrap; line-height: 1.5; max-width: 200px; text-align: center;"><span class="edgeLabel"></span></div></foreignObject></g></g><g class="edgeLabel"><g class="label" data-id="L_W1_MBOX_0" transform="translate(0, 0)"><foreignObject width="0" height="0"><div xmlns="http://www.w3.org/1999/xhtml" class="labelBkg" style="display: table-cell; white-space: nowrap; line-height: 1.5; max-width: 200px; text-align: center;"><span class="edgeLabel"></span></div></foreignObject></g></g><g class="edgeLabel"><g class="label" data-id="L_W2_MBOX_0" transform="translate(0, 0)"><foreignObject width="0" height="0"><div xmlns="http://www.w3.org/1999/xhtml" class="labelBkg" style="display: table-cell; white-space: nowrap; line-height: 1.5; max-width: 200px; text-align: center;"><span class="edgeLabel"></span></div></foreignObject></g></g><g class="edgeLabel"><g class="label" data-id="L_W3_MBOX_0" transform="translate(0, 0)"><foreignObject width="0" height="0"><div xmlns="http://www.w3.org/1999/xhtml" class="labelBkg" style="display: table-cell; white-space: nowrap; line-height: 1.5; max-width: 200px; text-align: center;"><span class="edgeLabel"></span></div></foreignObject></g></g><g class="edgeLabel"><g class="label" data-id="L_INBOX_POLL_MBOX_0" transform="translate(0, 0)"><foreignObject width="0" height="0"><div xmlns="http://www.w3.org/1999/xhtml" class="labelBkg" style="display: table-cell; white-space: nowrap; line-height: 1.5; max-width: 200px; text-align: center;"><span class="edgeLabel"></span></div></foreignObject></g></g><g class="edgeLabel"><g class="label" data-id="L_SPAWN_Backend_0" transform="translate(0, 0)"><foreignObject width="0" height="0"><div xmlns="http://www.w3.org/1999/xhtml" class="labelBkg" style="display: table-cell; white-space: nowrap; line-height: 1.5; max-width: 200px; text-align: center;"><span class="edgeLabel"></span></div></foreignObject></g></g></g><g class="nodes"><g class="node default" id="flowchart-TC-0" transform="translate(152.7421875, 69)"><rect class="basic label-container" style="" x="-109.7421875" y="-36" width="219.484375" height="72"/><g class="label" style="" transform="translate(-79.7421875, -21)"><rect/><foreignObject width="159.484375" height="42"><div xmlns="http://www.w3.org/1999/xhtml" style="display: table-cell; white-space: nowrap; line-height: 1.5; max-width: 200px; text-align: center;"><span class="nodeLabel"><p>TeamCreate<br />Create team + config.json</p></span></div></foreignObject></g></g><g class="node default" id="flowchart-SPAWN-1" transform="translate(679.6484375, 69)"><rect class="basic label-container" style="" x="-86.5546875" y="-36" width="173.109375" height="72"/><g class="label" style="" transform="translate(-56.5546875, -21)"><rect/><foreignObject width="113.109375" height="42"><div xmlns="http://www.w3.org/1999/xhtml" style="display: table-cell; white-space: nowrap; line-height: 1.5; max-width: 200px; text-align: center;"><span class="nodeLabel"><p>spawnMultiAgent<br />Spawn teammates</p></span></div></foreignObject></g></g><g class="node default" id="flowchart-SEND-2" transform="translate(427.7890625, 69)"><rect class="basic label-container" style="" x="-115.3046875" y="-36" width="230.609375" height="72"/><g class="label" style="" transform="translate(-85.3046875, -21)"><rect/><foreignObject width="170.609375" height="42"><div xmlns="http://www.w3.org/1999/xhtml" style="display: table-cell; white-space: nowrap; line-height: 1.5; max-width: 200px; text-align: center;"><span class="nodeLabel"><p>SendMessage<br />DM / broadcast / shutdown</p></span></div></foreignObject></g></g><g class="node default" id="flowchart-INBOX_POLL-3" transform="translate(1448.65625, 69)"><rect class="basic label-container" style="" x="-83.6640625" y="-36" width="167.328125" height="72"/><g class="label" style="" transform="translate(-53.6640625, -21)"><rect/><foreignObject width="107.328125" height="42"><div xmlns="http://www.w3.org/1999/xhtml" style="display: table-cell; white-space: nowrap; line-height: 1.5; max-width: 200px; text-align: center;"><span class="nodeLabel"><p>useInboxPoller<br />Poll for messages</p></span></div></foreignObject></g></g><g class="node default" id="flowchart-TMUX-4" transform="translate(679.6484375, 251.5)"><rect class="basic label-container" style="" x="-120.6484375" y="-36" width="241.296875" height="72"/><g class="label" style="" transform="translate(-90.6484375, -21)"><rect/><foreignObject width="181.296875" height="42"><div xmlns="http://www.w3.org/1999/xhtml" style="display: table-cell; white-space: nowrap; line-height: 1.5; max-width: 200px; text-align: center;"><span class="nodeLabel"><p>TmuxBackend<br />split-pane / separate-window</p></span></div></foreignObject></g></g><g class="node default" id="flowchart-ITERM-5" transform="translate(966.9765625, 251.5)"><rect class="basic label-container" style="" x="-116.6796875" y="-36" width="233.359375" height="72"/><g class="label" style="" transform="translate(-86.6796875, -21)"><rect/><foreignObject width="173.359375" height="42"><div xmlns="http://www.w3.org/1999/xhtml" style="display: table-cell; white-space: nowrap; line-height: 1.5; max-width: 200px; text-align: center;"><span class="nodeLabel"><p>ITermBackend<br />native iTerm2 panes (it2 CLI)</p></span></div></foreignObject></g></g><g class="node default" id="flowchart-INPROC-6" transform="translate(1263.65625, 251.5)"><rect class="basic label-container" style="" x="-130" y="-46.5" width="260" height="93"/><g class="label" style="" transform="translate(-100, -31.5)"><rect/><foreignObject width="200" height="63"><div xmlns="http://www.w3.org/1999/xhtml" style="display: table; white-space: break-spaces; line-height: 1.5; max-width: 200px; text-align: center; width: 200px;"><span class="nodeLabel"><p>InProcessBackend<br />same process, separate query loop</p></span></div></foreignObject></g></g><g class="node default" id="flowchart-CONFIG-7" transform="translate(152.7421875, 606)"><rect class="basic label-container" style="" x="-74.6015625" y="-36" width="149.203125" height="72"/><g class="label" style="" transform="translate(-44.6015625, -21)"><rect/><foreignObject width="89.203125" height="42"><div xmlns="http://www.w3.org/1999/xhtml" style="display: table-cell; white-space: nowrap; line-height: 1.5; max-width: 200px; text-align: center;"><span class="nodeLabel"><p>config.json<br />Team manifest</p></span></div></foreignObject></g></g><g class="node default" id="flowchart-MBOX-8" transform="translate(966.9765625, 606)"><rect class="basic label-container" style="" x="-92.1328125" y="-36" width="184.265625" height="72"/><g class="label" style="" transform="translate(-62.1328125, -21)"><rect/><foreignObject width="124.265625" height="42"><div xmlns="http://www.w3.org/1999/xhtml" style="display: table-cell; white-space: nowrap; line-height: 1.5; max-width: 200px; text-align: center;"><span class="nodeLabel"><p>inboxes/{name}.json<br />Mailbox (locked)</p></span></div></foreignObject></g></g><g class="node default" id="flowchart-TASKS-9" transform="translate(1362.9921875, 606)"><rect class="basic label-container" style="" x="-70.6640625" y="-25.5" width="141.328125" height="51"/><g class="label" style="" transform="translate(-40.6640625, -10.5)"><rect/><foreignObject width="81.328125" height="21"><div xmlns="http://www.w3.org/1999/xhtml" style="display: table-cell; white-space: nowrap; line-height: 1.5; max-width: 200px; text-align: center;"><span class="nodeLabel"><p>tasks/{team}/</p></span></div></foreignObject></g></g><g class="node default" id="flowchart-W1-10" transform="translate(679.6484375, 434)"><rect class="basic label-container" style="" x="-67.8203125" y="-36" width="135.640625" height="72"/><g class="label" style="" transform="translate(-37.8203125, -21)"><rect/><foreignObject width="75.640625" height="42"><div xmlns="http://www.w3.org/1999/xhtml" style="display: table-cell; white-space: nowrap; line-height: 1.5; max-width: 200px; text-align: center;"><span class="nodeLabel"><p>teammate-1<br />researcher</p></span></div></foreignObject></g></g><g class="node default" id="flowchart-W2-11" transform="translate(966.9765625, 434)"><rect class="basic label-container" style="" x="-67.8203125" y="-36" width="135.640625" height="72"/><g class="label" style="" transform="translate(-37.8203125, -21)"><rect/><foreignObject width="75.640625" height="42"><div xmlns="http://www.w3.org/1999/xhtml" style="display: table-cell; white-space: nowrap; line-height: 1.5; max-width: 200px; text-align: center;"><span class="nodeLabel"><p>teammate-2<br />test-runner</p></span></div></foreignObject></g></g><g class="node default" id="flowchart-W3-12" transform="translate(1263.65625, 434)"><rect class="basic label-container" style="" x="-69.3203125" y="-36" width="138.640625" height="72"/><g class="label" style="" transform="translate(-39.3203125, -21)"><rect/><foreignObject width="78.640625" height="42"><div xmlns="http://www.w3.org/1999/xhtml" style="display: table-cell; white-space: nowrap; line-height: 1.5; max-width: 200px; text-align: center;"><span class="nodeLabel"><p>teammate-3<br />implementer</p></span></div></foreignObject></g></g></g></g></g></svg>