<svg id="my-svg" width="100%" xmlns="http://www.w3.org/2000/svg" xmlns:xlink="http://www.w3.org/1999/xlink" class="flowchart" style="max-width: 1732.72px; background-color: white;" viewBox="-16 -18.5 1732.71875 837.5" role="graphics-document document" aria-roledescription="flowchart-v2"><style>#my-svg{font-family:Segoe UI,-apple-system,sans-serif;font-size:18px;fill:#212529;}@keyframes edge-animation-frame{from{stroke-dashoffset:0;}}@keyframes dash{to{stroke-dashoffset:0;}}#my-svg .edge-animation-slow{stroke-dasharray:9,5!important;stroke-dashoffset:900;animation:dash 50s linear infinite;stroke-linecap:round;}#my-svg .edge-animation-fast{stroke-dasharray:9,5!important;stroke-dashoffset:900;animation:dash 20s linear infinite;stroke-linecap:round;}#my-svg .error-icon{fill:#e6f7f0;}#my-svg .error-text{fill:#1b4332;stroke:#1b4332;}#my-svg .edge-thickness-normal{stroke-width:1px;}#my-svg .edge-thickness-thick{stroke-width:3.5px;}#my-svg .edge-pattern-solid{stroke-dasharray:0;}#my-svg .edge-thickness-invisible{stroke-width:0;fill:none;}#my-svg .edge-pattern-dashed{stroke-dasharray:3;}#my-svg .edge-pattern-dotted{stroke-dasharray:2;}#my-svg .marker{fill:#6c757d;stroke:#6c757d;}#my-svg .marker.cross{stroke:#6c757d;}#my-svg svg{font-family:Segoe UI,-apple-system,sans-serif;font-size:18px;}#my-svg p{margin:0;}#my-svg .label{font-family:Segoe UI,-apple-system,sans-serif;color:#1a1a2e;}#my-svg .cluster-label text{fill:#212529;}#my-svg .cluster-label span{color:#212529;}#my-svg .cluster-label span p{background-color:transparent;}#my-svg .label text,#my-svg span{fill:#1a1a2e;color:#1a1a2e;}#my-svg .node rect,#my-svg .node circle,#my-svg .node ellipse,#my-svg .node polygon,#my-svg .node path{fill:#e8f0fe;stroke:#4a90d9;stroke-width:1px;}#my-svg .rough-node .label text,#my-svg .node .label text,#my-svg .image-shape .label,#my-svg .icon-shape .label{text-anchor:middle;}#my-svg .node .katex path{fill:#000;stroke:#000;stroke-width:1px;}#my-svg .rough-node .label,#my-svg .node .label,#my-svg .image-shape .label,#my-svg .icon-shape .label{text-align:center;}#my-svg .node.clickable{cursor:pointer;}#my-svg .root .anchor path{fill:#6c757d!important;stroke-width:0;stroke:#6c757d;}#my-svg .arrowheadPath{fill:#0b0b0b;}#my-svg .edgePath .path{stroke:#6c757d;stroke-width:2.0px;}#my-svg .flowchart-link{stroke:#6c757d;fill:none;}#my-svg .edgeLabel{background-color:#ffffff;text-align:center;}#my-svg .edgeLabel p{background-color:#ffffff;}#my-svg .edgeLabel rect{opacity:0.5;background-color:#ffffff;fill:#ffffff;}#my-svg .labelBkg{background-color:rgba(255, 255, 255, 0.5);}#my-svg .cluster rect{fill:#f8f9fa;stroke:#adb5bd;stroke-width:1px;}#my-svg .cluster text{fill:#212529;}#my-svg .cluster span{color:#212529;}#my-svg div.mermaidTooltip{position:absolute;text-align:center;max-width:200px;padding:2px;font-family:Segoe UI,-apple-system,sans-serif;font-size:12px;background:#e6f7f0;border:1px solid #52b788;border-radius:2px;pointer-events:none;z-index:100;}#my-svg .flowchartTitleText{text-anchor:middle;font-size:18px;fill:#212529;}#my-svg rect.text{fill:none;stroke-width:0;}#my-svg .icon-shape,#my-svg .image-shape{background-color:#ffffff;text-align:center;}#my-svg .icon-shape p,#my-svg .image-shape p{background-color:#ffffff;padding:2px;}#my-svg .icon-shape .label rect,#my-svg .image-shape .label rect{opacity:0.5;background-color:#ffffff;fill:#ffffff;}#my-svg .label-icon{display:inline-block;height:1em;overflow:visible;vertical-align:-0.125em;}#my-svg .node .label-icon path{fill:currentColor;stroke:revert;stroke-width:revert;}#my-svg .node rect,#my-svg .node polygon,#my-svg .node circle,#my-svg .node ellipse{rx:12px!important;ry:12px!important;stroke-width:2.5px!important;filter:drop-shadow(2px 2px 4px rgba(0,0,0,0.12))!important;}#my-svg .cluster rect{rx:16px!important;ry:16px!important;stroke-width:2px!important;stroke-dasharray:none!important;}#my-svg .flowchart-link,#my-svg .edgePath path{stroke-width:2px!important;}#my-svg .edgeLabel{font-size:14px!important;background-color:#ffffff!important;padding:4px 8px!important;border-radius:6px!important;}#my-svg .label{font-weight:500!important;}#my-svg .cluster .nodeLabel{font-weight:600!important;font-size:16px!important;}#my-svg :root{--mermaid-font-family:"trebuchet ms",verdana,arial,sans-serif;}</style><g><marker id="my-svg_flowchart-v2-pointEnd" class="marker flowchart-v2" viewBox="0 0 10 10" refX="5" refY="5" markerUnits="userSpaceOnUse" markerWidth="8" markerHeight="8" orient="auto"><path d="M 0 0 L 10 5 L 0 10 z" class="arrowMarkerPath" style="stroke-width: 1; stroke-dasharray: 1, 0;"/></marker><marker id="my-svg_flowchart-v2-pointStart" class="marker flowchart-v2" viewBox="0 0 10 10" refX="4.5" refY="5" markerUnits="userSpaceOnUse" markerWidth="8" markerHeight="8" orient="auto"><path d="M 0 5 L 10 10 L 10 0 z" class="arrowMarkerPath" style="stroke-width: 1; stroke-dasharray: 1, 0;"/></marker><marker id="my-svg_flowchart-v2-circleEnd" class="marker flowchart-v2" viewBox="0 0 10 10" refX="11" refY="5" markerUnits="userSpaceOnUse" markerWidth="11" markerHeight="11" orient="auto"><circle cx="5" cy="5" r="5" class="arrowMarkerPath" style="stroke-width: 1; stroke-dasharray: 1, 0;"/></marker><marker id="my-svg_flowchart-v2-circleStart" class="marker flowchart-v2" viewBox="0 0 10 10" refX="-1" refY="5" markerUnits="userSpaceOnUse" markerWidth="11" markerHeight="11" orient="auto"><circle cx="5" cy="5" r="5" class="arrowMarkerPath" style="stroke-width: 1; stroke-dasharray: 1, 0;"/></marker><marker id="my-svg_flowchart-v2-crossEnd" class="marker cross flowchart-v2" viewBox="0 0 11 11" refX="12" refY="5.2" markerUnits="userSpaceOnUse" markerWidth="11" markerHeight="11" orient="auto"><path d="M 1,1 l 9,9 M 10,1 l -9,9" class="arrowMarkerPath" style="stroke-width: 2; stroke-dasharray: 1, 0;"/></marker><marker id="my-svg_flowchart-v2-crossStart" class="marker cross flowchart-v2" viewBox="0 0 11 11" refX="-1" refY="5.2" markerUnits="userSpaceOnUse" markerWidth="11" markerHeight="11" orient="auto"><path d="M 1,1 l 9,9 M 10,1 l -9,9" class="arrowMarkerPath" style="stroke-width: 2; stroke-dasharray: 1, 0;"/></marker><g class="root"><g class="clusters"><g class="cluster" id="Workers" data-look="classic"><rect style="" x="654.09375" y="472" width="850.734375" height="134"/><g class="cluster-label" transform="translate(1025.3203125, 472)"><foreignObject width="108.28125" height="24"><div xmlns="http://www.w3.org/1999/xhtml" style="display: table-cell; white-space: nowrap; line-height: 1.5;"><span class="nodeLabel"><p>🔧 Teammates</p></span></div></foreignObject></g></g><g class="cluster" id="FS" data-look="classic"><rect style="" x="48.6953125" y="677" width="1543.9375" height="134"/><g class="cluster-label" transform="translate(696.4765625, 677)"><foreignObject width="248.375" height="24"><div xmlns="http://www.w3.org/1999/xhtml" style="display: table-cell; white-space: nowrap; line-height: 1.5;"><span class="nodeLabel"><p>📁 File System (~/.claude/teams/)</p></span></div></foreignObject></g></g><g class="cluster" id="Backend" data-look="classic"><rect style="" x="602.6328125" y="240" width="950" height="161"/><g class="cluster-label" transform="translate(1030.4296875, 240)"><foreignObject width="94.40625" height="24"><div xmlns="http://www.w3.org/1999/xhtml" style="display: table-cell; white-space: nowrap; line-height: 1.5;"><span class="nodeLabel"><p>🖥️ Backends</p></span></div></foreignObject></g></g><g class="cluster" id="Leader" data-look="classic"><rect style="" x="8" y="8" width="1700.71875" height="161"/><g class="cluster-label" transform="translate(799.4609375, 8)"><foreignObject width="117.796875" height="24"><div xmlns="http://www.w3.org/1999/xhtml" style="display: table-cell; white-space: nowrap; line-height: 1.5;"><span class="nodeLabel"><p>👑 Team Leader</p></span></div></foreignObject></g></g></g><g class="edgePaths"><path d="M173,144L173,148.167C173,152.333,173,160.667,173,170.75C173,180.833,173,192.667,173,204.5C173,216.333,173,228.167,173,247.5C173,266.833,173,293.667,173,320.5C173,347.333,173,374.167,173,393.5C173,412.833,173,424.667,173,436.5C173,448.333,173,460.167,173,477.25C173,494.333,173,516.667,173,539C173,561.333,173,583.667,173,600.75C173,617.833,173,629.667,173,641.5C173,653.333,173,665.167,173,674.583C173,684,173,691,173,694.5L173,698" id="L_TC_CONFIG_0" class="edge-thickness-normal edge-pattern-solid edge-thickness-normal edge-pattern-solid flowchart-link" style=";" data-edge="true" data-et="edge" data-id="L_TC_CONFIG_0" data-points="W3sieCI6MTczLCJ5IjoxNDR9LHsieCI6MTczLCJ5IjoxNjl9LHsieCI6MTczLCJ5IjoyMDQuNX0seyJ4IjoxNzMsInkiOjI0MH0seyJ4IjoxNzMsInkiOjMyMC41fSx7IngiOjE3MywieSI6NDAxfSx7IngiOjE3MywieSI6NDM2LjV9LHsieCI6MTczLCJ5Ijo0NzJ9LHsieCI6MTczLCJ5Ijo1Mzl9LHsieCI6MTczLCJ5Ijo2MDZ9LHsieCI6MTczLCJ5Ijo2NDEuNX0seyJ4IjoxNzMsInkiOjY3N30seyJ4IjoxNzMsInkiOjcwMn1d" marker-end="url(#my-svg_flowchart-v2-pointEnd)"/><path d="M767.633,376L767.633,380.167C767.633,384.333,767.633,392.667,767.633,402.75C767.633,412.833,767.633,424.667,767.633,436.5C767.633,448.333,767.633,460.167,767.633,469.583C767.633,479,767.633,486,767.633,489.5L767.633,493" id="L_TMUX_W1_0" class="edge-thickness-normal edge-pattern-solid edge-thickness-normal edge-pattern-solid flowchart-link" style=";" data-edge="true" data-et="edge" data-id="L_TMUX_W1_0" data-points="W3sieCI6NzY3LjYzMjgxMjUsInkiOjM3Nn0seyJ4Ijo3NjcuNjMyODEyNSwieSI6NDAxfSx7IngiOjc2Ny42MzI4MTI1LCJ5Ijo0MzYuNX0seyJ4Ijo3NjcuNjMyODEyNSwieSI6NDcyfSx7IngiOjc2Ny42MzI4MTI1LCJ5Ijo0OTd9XQ==" marker-end="url(#my-svg_flowchart-v2-pointEnd)"/><path d="M1077.633,376L1077.633,380.167C1077.633,384.333,1077.633,392.667,1077.633,402.75C1077.633,412.833,1077.633,424.667,1077.633,436.5C1077.633,448.333,1077.633,460.167,1077.633,469.583C1077.633,479,1077.633,486,1077.633,489.5L1077.633,493" id="L_ITERM_W2_0" class="edge-thickness-normal edge-pattern-solid edge-thickness-normal edge-pattern-solid flowchart-link" style=";" data-edge="true" data-et="edge" data-id="L_ITERM_W2_0" data-points="W3sieCI6MTA3Ny42MzI4MTI1LCJ5IjozNzZ9LHsieCI6MTA3Ny42MzI4MTI1LCJ5Ijo0MDF9LHsieCI6MTA3Ny42MzI4MTI1LCJ5Ijo0MzYuNX0seyJ4IjoxMDc3LjYzMjgxMjUsInkiOjQ3Mn0seyJ4IjoxMDc3LjYzMjgxMjUsInkiOjQ5N31d" marker-end="url(#my-svg_flowchart-v2-pointEnd)"/><path d="M1387.633,376L1387.633,380.167C1387.633,384.333,1387.633,392.667,1387.633,402.75C1387.633,412.833,1387.633,424.667,1387.633,436.5C1387.633,448.333,1387.633,460.167,1387.633,469.583C1387.633,479,1387.633,486,1387.633,489.5L1387.633,493" id="L_INPROC_W3_0" class="edge-thickness-normal edge-pattern-solid edge-thickness-normal edge-pattern-solid flowchart-link" style=";" data-edge="true" data-et="edge" data-id="L_INPROC_W3_0" data-points="W3sieCI6MTM4Ny42MzI4MTI1LCJ5IjozNzZ9LHsieCI6MTM4Ny42MzI4MTI1LCJ5Ijo0MDF9LHsieCI6MTM4Ny42MzI4MTI1LCJ5Ijo0MzYuNX0seyJ4IjoxMzg3LjYzMjgxMjUsInkiOjQ3Mn0seyJ4IjoxMzg3LjYzMjgxMjUsInkiOjQ5N31d" marker-end="url(#my-svg_flowchart-v2-pointEnd)"/><path d="M483,144L483,148.167C483,152.333,483,160.667,483,170.75C483,180.833,483,192.667,483,204.5C483,216.333,483,228.167,483,247.5C483,266.833,483,293.667,483,320.5C483,347.333,483,374.167,483,393.5C483,412.833,483,424.667,483,436.5C483,448.333,483,460.167,483,477.25C483,494.333,483,516.667,483,539C483,561.333,483,583.667,483,600.75C483,617.833,483,629.667,483,641.5C483,653.333,483,665.167,562.651,680.058C642.303,694.949,801.605,712.899,881.257,721.873L960.908,730.848" id="L_SEND_MBOX_0" class="edge-thickness-normal edge-pattern-solid edge-thickness-normal edge-pattern-solid flowchart-link" style=";" data-edge="true" data-et="edge" data-id="L_SEND_MBOX_0" data-points="W3sieCI6NDgzLCJ5IjoxNDR9LHsieCI6NDgzLCJ5IjoxNjl9LHsieCI6NDgzLCJ5IjoyMDQuNX0seyJ4Ijo0ODMsInkiOjI0MH0seyJ4Ijo0ODMsInkiOjMyMC41fSx7IngiOjQ4MywieSI6NDAxfSx7IngiOjQ4MywieSI6NDM2LjV9LHsieCI6NDgzLCJ5Ijo0NzJ9LHsieCI6NDgzLCJ5Ijo1Mzl9LHsieCI6NDgzLCJ5Ijo2MDZ9LHsieCI6NDgzLCJ5Ijo2NDEuNX0seyJ4Ijo0ODMsInkiOjY3N30seyJ4Ijo5NjQuODgyODEyNSwieSI6NzMxLjI5NTk0MTU2MDU3NDR9XQ==" marker-end="url(#my-svg_flowchart-v2-pointEnd)"/><path d="M767.633,581L767.633,585.167C767.633,589.333,767.633,597.667,767.633,607.75C767.633,617.833,767.633,629.667,767.633,641.5C767.633,653.333,767.633,665.167,799.856,678.048C832.08,690.929,896.526,704.858,928.75,711.822L960.973,718.786" id="L_W1_MBOX_0" class="edge-thickness-normal edge-pattern-solid edge-thickness-normal edge-pattern-solid flowchart-link" style=";" data-edge="true" data-et="edge" data-id="L_W1_MBOX_0" data-points="W3sieCI6NzY3LjYzMjgxMjUsInkiOjU4MX0seyJ4Ijo3NjcuNjMyODEyNSwieSI6NjA2fSx7IngiOjc2Ny42MzI4MTI1LCJ5Ijo2NDEuNX0seyJ4Ijo3NjcuNjMyODEyNSwieSI6Njc3fSx7IngiOjk2NC44ODI4MTI1LCJ5Ijo3MTkuNjMxNDUxNjEyOTAzMn1d" marker-end="url(#my-svg_flowchart-v2-pointEnd)"/><path d="M1077.633,581L1077.633,585.167C1077.633,589.333,1077.633,597.667,1077.633,607.75C1077.633,617.833,1077.633,629.667,1077.633,641.5C1077.633,653.333,1077.633,665.167,1077.633,674.583C1077.633,684,1077.633,691,1077.633,694.5L1077.633,698" id="L_W2_MBOX_0" class="edge-thickness-normal edge-pattern-solid edge-thickness-normal edge-pattern-solid flowchart-link" style=";" data-edge="true" data-et="edge" data-id="L_W2_MBOX_0" data-points="W3sieCI6MTA3Ny42MzI4MTI1LCJ5Ijo1ODF9LHsieCI6MTA3Ny42MzI4MTI1LCJ5Ijo2MDZ9LHsieCI6MTA3Ny42MzI4MTI1LCJ5Ijo2NDEuNX0seyJ4IjoxMDc3LjYzMjgxMjUsInkiOjY3N30seyJ4IjoxMDc3LjYzMjgxMjUsInkiOjcwMn1d" marker-end="url(#my-svg_flowchart-v2-pointEnd)"/><path d="M1387.633,581L1387.633,585.167C1387.633,589.333,1387.633,597.667,1387.633,607.75C1387.633,617.833,1387.633,629.667,1387.633,641.5C1387.633,653.333,1387.633,665.167,1355.409,678.048C1323.186,690.929,1258.739,704.858,1226.516,711.822L1194.293,718.786" id="L_W3_MBOX_0" class="edge-thickness-normal edge-pattern-solid edge-thickness-normal edge-pattern-solid flowchart-link" style=";" data-edge="true" data-et="edge" data-id="L_W3_MBOX_0" data-points="W3sieCI6MTM4Ny42MzI4MTI1LCJ5Ijo1ODF9LHsieCI6MTM4Ny42MzI4MTI1LCJ5Ijo2MDZ9LHsieCI6MTM4Ny42MzI4MTI1LCJ5Ijo2NDEuNX0seyJ4IjoxMzg3LjYzMjgxMjUsInkiOjY3N30seyJ4IjoxMTkwLjM4MjgxMjUsInkiOjcxOS42MzE0NTE2MTI5MDMyfV0=" marker-end="url(#my-svg_flowchart-v2-pointEnd)"/><path d="M1572.633,130.5L1572.633,136.917C1572.633,143.333,1572.633,156.167,1572.633,168.5C1572.633,180.833,1572.633,192.667,1572.633,204.5C1572.633,216.333,1572.633,228.167,1572.633,247.5C1572.633,266.833,1572.633,293.667,1572.633,320.5C1572.633,347.333,1572.633,374.167,1572.633,393.5C1572.633,412.833,1572.633,424.667,1572.633,436.5C1572.633,448.333,1572.633,460.167,1572.633,477.25C1572.633,494.333,1572.633,516.667,1572.633,539C1572.633,561.333,1572.633,583.667,1572.633,600.75C1572.633,617.833,1572.633,629.667,1572.633,641.5C1572.633,653.333,1572.633,665.167,1509.585,679.617C1446.537,694.067,1320.442,711.135,1257.394,719.669L1194.347,728.202" id="L_INBOX_POLL_MBOX_0" class="edge-thickness-normal edge-pattern-solid edge-thickness-normal edge-pattern-solid flowchart-link" style=";" data-edge="true" data-et="edge" data-id="L_INBOX_POLL_MBOX_0" data-points="W3sieCI6MTU3Mi42MzI4MTI1LCJ5IjoxMzAuNX0seyJ4IjoxNTcyLjYzMjgxMjUsInkiOjE2OX0seyJ4IjoxNTcyLjYzMjgxMjUsInkiOjIwNC41fSx7IngiOjE1NzIuNjMyODEyNSwieSI6MjQwfSx7IngiOjE1NzIuNjMyODEyNSwieSI6MzIwLjV9LHsieCI6MTU3Mi42MzI4MTI1LCJ5Ijo0MDF9LHsieCI6MTU3Mi42MzI4MTI1LCJ5Ijo0MzYuNX0seyJ4IjoxNTcyLjYzMjgxMjUsInkiOjQ3Mn0seyJ4IjoxNTcyLjYzMjgxMjUsInkiOjUzOX0seyJ4IjoxNTcyLjYzMjgxMjUsInkiOjYwNn0seyJ4IjoxNTcyLjYzMjgxMjUsInkiOjY0MS41fSx7IngiOjE1NzIuNjMyODEyNSwieSI6Njc3fSx7IngiOjExOTAuMzgyODEyNSwieSI6NzI4LjczODg4ODg4ODg4ODl9XQ==" marker-end="url(#my-svg_flowchart-v2-pointEnd)"/><path d="M767.633,130.5L767.633,136.917C767.633,143.333,767.633,156.167,767.633,168.5C767.633,180.833,767.633,192.667,767.633,203.833C767.633,215,767.633,225.5,767.633,230.75L767.633,236" id="L_SPAWN_Backend_0" class="edge-thickness-normal edge-pattern-solid edge-thickness-normal edge-pattern-solid flowchart-link" style=";" data-edge="true" data-et="edge" data-id="L_SPAWN_Backend_0" data-points="W3sieCI6NzY3LjYzMjgxMjUsInkiOjEzMC41fSx7IngiOjc2Ny42MzI4MTI1LCJ5IjoxNjl9LHsieCI6NzY3LjYzMjgxMjUsInkiOjIwNC41fSx7IngiOjc2Ny42MzI4MTI1LCJ5IjoyNDB9LHsieCI6NzY3LjYzMjgxMjUsInkiOjI2NX1d" marker-end="url(#my-svg_flowchart-v2-pointEnd)"/></g><g class="edgeLabels"><g class="edgeLabel"><g class="label" data-id="L_TC_CONFIG_0" transform="translate(-8, -10.5)"><foreignObject width="16" height="21"><div xmlns="http://www.w3.org/1999/xhtml" class="labelBkg" style="display: table-cell; white-space: nowrap; line-height: 1.5; max-width: 200px; text-align: center;"><span class="edgeLabel"></span></div></foreignObject></g></g><g class="edgeLabel"><g class="label" data-id="L_TMUX_W1_0" transform="translate(-8, -10.5)"><foreignObject width="16" height="21"><div xmlns="http://www.w3.org/1999/xhtml" class="labelBkg" style="display: table-cell; white-space: nowrap; line-height: 1.5; max-width: 200px; text-align: center;"><span class="edgeLabel"></span></div></foreignObject></g></g><g class="edgeLabel"><g class="label" data-id="L_ITERM_W2_0" transform="translate(-8, -10.5)"><foreignObject width="16" height="21"><div xmlns="http://www.w3.org/1999/xhtml" class="labelBkg" style="display: table-cell; white-space: nowrap; line-height: 1.5; max-width: 200px; text-align: center;"><span class="edgeLabel"></span></div></foreignObject></g></g><g class="edgeLabel"><g class="label" data-id="L_INPROC_W3_0" transform="translate(-8, -10.5)"><foreignObject width="16" height="21"><div xmlns="http://www.w3.org/1999/xhtml" class="labelBkg" style="display: table-cell; white-space: nowrap; line-height: 1.5; max-width: 200px; text-align: center;"><span class="edgeLabel"></span></div></foreignObject></g></g><g class="edgeLabel"><g class="label" data-id="L_SEND_MBOX_0" transform="translate(-8, -10.5)"><foreignObject width="16" height="21"><div xmlns="http://www.w3.org/1999/xhtml" class="labelBkg" style="display: table-cell; white-space: nowrap; line-height: 1.5; max-width: 200px; text-align: center;"><span class="edgeLabel"></span></div></foreignObject></g></g><g class="edgeLabel"><g class="label" data-id="L_W1_MBOX_0" transform="translate(-8, -10.5)"><foreignObject width="16" height="21"><div xmlns="http://www.w3.org/1999/xhtml" class="labelBkg" style="display: table-cell; white-space: nowrap; line-height: 1.5; max-width: 200px; text-align: center;"><span class="edgeLabel"></span></div></foreignObject></g></g><g class="edgeLabel"><g class="label" data-id="L_W2_MBOX_0" transform="translate(-8, -10.5)"><foreignObject width="16" height="21"><div xmlns="http://www.w3.org/1999/xhtml" class="labelBkg" style="display: table-cell; white-space: nowrap; line-height: 1.5; max-width: 200px; text-align: center;"><span class="edgeLabel"></span></div></foreignObject></g></g><g class="edgeLabel"><g class="label" data-id="L_W3_MBOX_0" transform="translate(-8, -10.5)"><foreignObject width="16" height="21"><div xmlns="http://www.w3.org/1999/xhtml" class="labelBkg" style="display: table-cell; white-space: nowrap; line-height: 1.5; max-width: 200px; text-align: center;"><span class="edgeLabel"></span></div></foreignObject></g></g><g class="edgeLabel"><g class="label" data-id="L_INBOX_POLL_MBOX_0" transform="translate(-8, -10.5)"><foreignObject width="16" height="21"><div xmlns="http://www.w3.org/1999/xhtml" class="labelBkg" style="display: table-cell; white-space: nowrap; line-height: 1.5; max-width: 200px; text-align: center;"><span class="edgeLabel"></span></div></foreignObject></g></g><g class="edgeLabel"><g class="label" data-id="L_SPAWN_Backend_0" transform="translate(-8, -10.5)"><foreignObject width="16" height="21"><div xmlns="http://www.w3.org/1999/xhtml" class="labelBkg" style="display: table-cell; white-space: nowrap; line-height: 1.5; max-width: 200px; text-align: center;"><span class="edgeLabel"></span></div></foreignObject></g></g></g><g class="nodes"><g class="node default" id="flowchart-TC-0" transform="translate(173, 88.5)"><rect class="basic label-container" style="" x="-130" y="-55.5" width="260" height="111"/><g class="label" style="" transform="translate(-100, -40.5)"><rect/><foreignObject width="200" height="81"><div xmlns="http://www.w3.org/1999/xhtml" style="display: table; white-space: break-spaces; line-height: 1.5; max-width: 200px; text-align: center; width: 200px;"><span class="nodeLabel"><p>TeamCreate<br />Create team + config.json</p></span></div></foreignObject></g></g><g class="node default" id="flowchart-SPAWN-1" transform="translate(767.6328125, 88.5)"><rect class="basic label-container" style="" x="-104.6328125" y="-42" width="209.265625" height="84"/><g class="label" style="" transform="translate(-74.6328125, -27)"><rect/><foreignObject width="149.265625" height="54"><div xmlns="http://www.w3.org/1999/xhtml" style="display: table-cell; white-space: nowrap; line-height: 1.5; max-width: 200px; text-align: center;"><span class="nodeLabel"><p>spawnMultiAgent<br />Spawn teammates</p></span></div></foreignObject></g></g><g class="node default" id="flowchart-SEND-2" transform="translate(483, 88.5)"><rect class="basic label-container" style="" x="-130" y="-55.5" width="260" height="111"/><g class="label" style="" transform="translate(-100, -40.5)"><rect/><foreignObject width="200" height="81"><div xmlns="http://www.w3.org/1999/xhtml" style="display: table; white-space: break-spaces; line-height: 1.5; max-width: 200px; text-align: center; width: 200px;"><span class="nodeLabel"><p>SendMessage<br />DM / broadcast / shutdown</p></span></div></foreignObject></g></g><g class="node default" id="flowchart-INBOX_POLL-3" transform="translate(1572.6328125, 88.5)"><rect class="basic label-container" style="" x="-101.0859375" y="-42" width="202.171875" height="84"/><g class="label" style="" transform="translate(-71.0859375, -27)"><rect/><foreignObject width="142.171875" height="54"><div xmlns="http://www.w3.org/1999/xhtml" style="display: table-cell; white-space: nowrap; line-height: 1.5; max-width: 200px; text-align: center;"><span class="nodeLabel"><p>useInboxPoller<br />Poll for messages</p></span></div></foreignObject></g></g><g class="node default" id="flowchart-TMUX-4" transform="translate(767.6328125, 320.5)"><rect class="basic label-container" style="" x="-130" y="-55.5" width="260" height="111"/><g class="label" style="" transform="translate(-100, -40.5)"><rect/><foreignObject width="200" height="81"><div xmlns="http://www.w3.org/1999/xhtml" style="display: table; white-space: break-spaces; line-height: 1.5; max-width: 200px; text-align: center; width: 200px;"><span class="nodeLabel"><p>TmuxBackend<br />split-pane / separate-window</p></span></div></foreignObject></g></g><g class="node default" id="flowchart-ITERM-5" transform="translate(1077.6328125, 320.5)"><rect class="basic label-container" style="" x="-130" y="-55.5" width="260" height="111"/><g class="label" style="" transform="translate(-100, -40.5)"><rect/><foreignObject width="200" height="81"><div xmlns="http://www.w3.org/1999/xhtml" style="display: table; white-space: break-spaces; line-height: 1.5; max-width: 200px; text-align: center; width: 200px;"><span class="nodeLabel"><p>ITermBackend<br />native iTerm2 panes (it2 CLI)</p></span></div></foreignObject></g></g><g class="node default" id="flowchart-INPROC-6" transform="translate(1387.6328125, 320.5)"><rect class="basic label-container" style="" x="-130" y="-55.5" width="260" height="111"/><g class="label" style="" transform="translate(-100, -40.5)"><rect/><foreignObject width="200" height="81"><div xmlns="http://www.w3.org/1999/xhtml" style="display: table; white-space: break-spaces; line-height: 1.5; max-width: 200px; text-align: center; width: 200px;"><span class="nodeLabel"><p>InProcessBackend<br />same process, separate query loop</p></span></div></foreignObject></g></g><g class="node default" id="flowchart-CONFIG-7" transform="translate(173, 744)"><rect class="basic label-container" style="" x="-89.3046875" y="-42" width="178.609375" height="84"/><g class="label" style="" transform="translate(-59.3046875, -27)"><rect/><foreignObject width="118.609375" height="54"><div xmlns="http://www.w3.org/1999/xhtml" style="display: table-cell; white-space: nowrap; line-height: 1.5; max-width: 200px; text-align: center;"><span class="nodeLabel"><p>config.json<br />Team manifest</p></span></div></foreignObject></g></g><g class="node default" id="flowchart-MBOX-8" transform="translate(1077.6328125, 744)"><rect class="basic label-container" style="" x="-112.75" y="-42" width="225.5" height="84"/><g class="label" style="" transform="translate(-82.75, -27)"><rect/><foreignObject width="165.5" height="54"><div xmlns="http://www.w3.org/1999/xhtml" style="display: table-cell; white-space: nowrap; line-height: 1.5; max-width: 200px; text-align: center;"><span class="nodeLabel"><p>inboxes/{name}.json<br />Mailbox (locked)</p></span></div></foreignObject></g></g><g class="node default" id="flowchart-TASKS-9" transform="translate(1473.125, 744)"><rect class="basic label-container" style="" x="-84.5078125" y="-28.5" width="169.015625" height="57"/><g class="label" style="" transform="translate(-54.5078125, -13.5)"><rect/><foreignObject width="109.015625" height="27"><div xmlns="http://www.w3.org/1999/xhtml" style="display: table-cell; white-space: nowrap; line-height: 1.5; max-width: 200px; text-align: center;"><span class="nodeLabel"><p>tasks/{team}/</p></span></div></foreignObject></g></g><g class="node default" id="flowchart-W1-10" transform="translate(767.6328125, 539)"><rect class="basic label-container" style="" x="-78.5390625" y="-42" width="157.078125" height="84"/><g class="label" style="" transform="translate(-48.5390625, -27)"><rect/><foreignObject width="97.078125" height="54"><div xmlns="http://www.w3.org/1999/xhtml" style="display: table-cell; white-space: nowrap; line-height: 1.5; max-width: 200px; text-align: center;"><span class="nodeLabel"><p>teammate-1<br />researcher</p></span></div></foreignObject></g></g><g class="node default" id="flowchart-W2-11" transform="translate(1077.6328125, 539)"><rect class="basic label-container" style="" x="-79.9140625" y="-42" width="159.828125" height="84"/><g class="label" style="" transform="translate(-49.9140625, -27)"><rect/><foreignObject width="99.828125" height="54"><div xmlns="http://www.w3.org/1999/xhtml" style="display: table-cell; white-space: nowrap; line-height: 1.5; max-width: 200px; text-align: center;"><span class="nodeLabel"><p>teammate-2<br />test-runner</p></span></div></foreignObject></g></g><g class="node default" id="flowchart-W3-12" transform="translate(1387.6328125, 539)"><rect class="basic label-container" style="" x="-82.1953125" y="-42" width="164.390625" height="84"/><g class="label" style="" transform="translate(-52.1953125, -27)"><rect/><foreignObject width="104.390625" height="54"><div xmlns="http://www.w3.org/1999/xhtml" style="display: table-cell; white-space: nowrap; line-height: 1.5; max-width: 200px; text-align: center;"><span class="nodeLabel"><p>teammate-3<br />implementer</p></span></div></foreignObject></g></g></g></g></g></svg>